<?xml version="1.0" standalone="no"?>
<!DOCTYPE svg PUBLIC "-//W3C//DTD SVG 20010904//EN"
        "http://www.w3.org/TR/2001/REC-SVG-20010904/DTD/svg10.dtd">
<svg version="1.0" xmlns="http://www.w3.org/2000/svg" viewBox="0 0 278.000000 268.000000"
     preserveAspectRatio="xMidYMid meet">

    <g transform="translate(0.000000,268.000000) scale(0.100000,-0.100000)" stroke="none">
        <path fill="currentColor" d="M1495 2349 c-143 -121 -273 -232 -288 -248 l-28 -27 -6 -365 -5 -364
35 -34 c19 -18 34 -38 31 -45 -2 -6 -17 -108 -34 -226 -17 -118 -51 -351 -76
-518 -24 -167 -44 -305 -44 -308 0 -2 9 -4 19 -4 11 0 22 -4 25 -9 3 -4 31
-16 63 -25 32 -10 67 -21 78 -26 11 -4 61 -20 110 -34 50 -15 104 -31 121 -36
42 -14 41 -15 42 31 2 49 82 842 85 845 1 2 119 -13 262 -32 143 -19 269 -34
280 -34 21 0 502 419 512 446 6 15 -114 824 -127 859 -6 14 -118 72 -385 198
-208 97 -385 177 -394 177 -9 0 -133 -100 -276 -221z m656 10 c200 -95 365
-172 366 -173 3 -2 123 -805 123 -823 0 -19 -449 -425 -478 -432 -8 -2 -132
12 -274 30 l-258 33 0 54 c0 60 15 96 35 88 8 -3 105 -6 216 -7 l203 -1 183
142 c112 87 185 151 188 164 2 12 9 120 15 241 6 121 13 241 15 267 5 40 2 48
-19 65 -13 10 -85 71 -160 137 l-136 118 -233 28 -232 28 -170 -101 c-93 -55
-171 -100 -172 -101 -1 -1 -21 -128 -43 -281 -22 -154 -48 -332 -58 -395 l-18
-114 -20 20 c-20 20 -20 29 -16 320 2 164 7 322 11 351 l6 52 270 230 c149
126 275 230 281 230 6 1 174 -76 375 -170z m-234 -540 c48 -17 102 -35 120
-40 22 -7 30 -14 26 -24 -3 -8 -9 -15 -13 -15 -4 0 -43 -34 -86 -76 l-78 -76
-63 17 -63 17 6 42 c5 36 13 84 30 164 6 29 15 28 121 -9z"/>
        <path fill="currentColor" d="M545 2509 c-64 -11 -77 -14 -95 -22 -8 -3 -27 -11 -42 -16 -18 -7
-29 -20 -33 -38 -3 -15 -11 -45 -16 -66 -6 -22 -12 -84 -15 -139 -3 -66 -9
-107 -19 -121 -18 -26 -19 -38 -4 -35 6 2 14 -3 16 -9 3 -7 0 -13 -6 -13 -6 0
-11 -11 -11 -24 0 -14 -5 -28 -11 -32 -8 -5 -10 3 -7 25 7 46 -9 38 -23 -11
-8 -31 -8 -43 0 -46 6 -2 11 -8 11 -13 0 -6 -4 -8 -9 -4 -6 3 -15 -3 -20 -14
-15 -27 -14 -44 2 -38 9 3 13 -7 14 -36 2 -44 -11 -77 -30 -77 -7 0 -12 -17
-13 -44 -2 -51 -32 -126 -51 -126 -19 0 -31 -34 -42 -124 -14 -117 -1 -135 94
-136 74 0 153 20 192 50 28 20 30 24 20 56 -8 26 -7 47 5 91 33 120 48 192 48
228 0 20 4 44 9 53 5 9 12 46 15 81 4 36 12 71 18 78 6 7 8 13 4 13 -3 0 -1
12 5 28 6 15 12 38 13 52 6 55 19 100 27 94 5 -3 9 -12 9 -20 0 -19 51 -127
65 -136 6 -5 5 -18 -3 -40 -11 -30 -10 -35 8 -50 24 -20 27 -37 16 -106 -6
-38 -4 -57 5 -68 7 -8 13 -27 15 -42 1 -15 5 -38 9 -52 3 -14 8 -43 11 -64 3
-22 12 -58 21 -80 8 -23 17 -53 20 -69 3 -15 19 -38 35 -52 28 -24 36 -25 135
-23 63 1 111 6 121 14 16 11 16 13 -1 31 -9 11 -14 23 -10 26 3 4 1 17 -5 30
-6 12 -17 42 -22 67 -6 25 -15 61 -20 80 -9 39 -55 163 -71 195 -5 11 -11 33
-13 49 -2 15 -8 31 -15 35 -7 4 -12 19 -13 32 -1 40 -19 104 -32 111 -8 6 -8
8 2 8 14 0 17 36 3 45 -5 3 -15 22 -22 42 -7 21 -18 44 -26 51 -16 16 -18 62
-2 62 7 0 8 7 4 18 -4 9 -13 40 -21 67 -16 59 -33 95 -54 112 -8 7 -10 13 -5
13 6 0 11 8 12 18 3 38 -83 51 -202 31z"/>
        <path fill="currentColor" d="M846 1245 c-76 -21 -102 -45 -98 -91 1 -22 -4 -64 -12 -94 -24 -92
-46 -203 -46 -233 0 -16 -4 -36 -9 -45 -5 -9 -12 -46 -15 -80 -2 -35 -9 -69
-15 -75 -5 -7 -9 -15 -9 -20 0 -4 -3 -22 -7 -40 -16 -83 -28 -127 -34 -127 -4
0 -13 21 -20 48 -8 26 -19 54 -25 62 -31 39 -38 67 -26 91 11 19 10 25 -8 39
-25 20 -28 40 -18 108 6 38 4 57 -5 68 -7 8 -13 27 -15 42 -1 15 -5 38 -9 52
-3 14 -8 43 -11 64 -3 22 -12 58 -21 80 -8 23 -17 53 -20 69 -3 15 -19 39 -36
53 -30 25 -35 26 -112 20 -44 -3 -95 -6 -113 -6 -38 0 -53 -24 -27 -44 10 -7
15 -18 11 -25 -4 -6 -3 -17 2 -24 9 -11 21 -56 39 -137 2 -14 11 -38 18 -55 7
-16 21 -55 31 -85 9 -30 21 -60 25 -66 5 -6 10 -25 12 -43 2 -18 10 -37 17
-41 7 -4 14 -24 15 -44 5 -63 16 -95 33 -99 15 -4 15 -5 0 -6 -10 0 -18 -5
-18 -10 0 -15 42 -106 58 -123 10 -12 13 -29 8 -56 -9 -57 35 -202 61 -202 16
0 16 -6 3 -30 -16 -30 36 -53 103 -45 62 7 136 15 157 17 8 0 24 7 35 14 11 8
28 14 37 14 31 0 57 97 65 245 3 60 11 108 19 120 16 22 18 39 5 31 -5 -3 -11
1 -15 9 -3 8 -1 15 4 15 5 0 10 12 12 27 5 39 25 40 21 1 l-3 -33 15 30 c17
35 19 65 5 65 -5 0 -10 5 -10 11 0 5 5 7 11 3 13 -8 29 13 29 40 0 11 -5 16
-14 13 -11 -5 -14 4 -12 42 3 52 11 71 29 71 7 0 13 17 13 40 2 50 33 130 50
130 19 0 29 25 43 107 15 88 9 126 -25 142 -33 15 -116 13 -178 -4z"/>
    </g>
</svg>
